<?xml version="1.0" encoding="utf-8"?>
<!-- Generator: Adobe Illustrator 27.1.1, SVG Export Plug-In . SVG Version: 6.00 Build 0)  -->
<svg version="1.1" id="rts-logo" xmlns="http://www.w3.org/2000/svg" xmlns:xlink="http://www.w3.org/1999/xlink" x="0px" y="0px"
	 viewBox="0 0 400 262.3" style="enable-background:new 0 0 400 262.3;" xml:space="preserve">
<style type="text/css">
	.st0{fill:#231F20;}
	.st1{fill:#ED2024;}
</style>
<polygon id="theT" class="st0" points="86.5,13.9 73.7,13.8 73.7,76.6 52.7,76.6 52.8,13.8 40.1,13.8 43.5,0 83,0 "/>
<polygon id="theH" class="st0" points="140.6,76.6 119.7,76.6 119.7,36.1 112.2,36.1 112.2,76.6 91.5,76.6 91.5,0 112.3,0 
	112.2,22.2 119.7,22.2 119.7,0 140.7,0 "/>
<polygon id="theE" class="st0" points="179.4,62.8 176,76.7 145.6,76.6 145.7,0 176,0.1 179.5,13.9 166.6,13.9 166.6,29.3 179,29.3 
	179,43.1 166.6,43.1 166.6,62.8 "/>
<path id="redR" class="st0" d="M261.2,76.7h-21.6L229.4,47h-0.5l0,29.7h-20.7l0-76.6l40.6,0c1.8,0,3.4,0.7,4.9,2.1
	c1.4,1.4,2.2,3,2.2,4.7l0,33.2c0,1.4-0.5,2.7-1.5,3.9c-1,1.2-2.2,2.1-3.5,2.6L261.2,76.7L261.2,76.7z M236.9,33.1l0-19.2h-8v19.2
	H236.9z"/>
<polygon id="redE" class="st0" points="300,62.9 296.6,76.7 266.2,76.7 266.3,0.1 296.6,0.1 300,14 287.2,13.9 287.2,29.3 
	299.6,29.3 299.6,43.2 287.2,43.2 287.2,62.9 "/>
<path id="redD" class="st0" d="M354.2,69.9c0,1.7-0.7,3.3-2.2,4.7c-1.5,1.4-3.1,2.1-4.9,2.1l-42,0l0-76.6l42,0
	c1.8,0,3.4,0.7,4.9,2.1c1.5,1.4,2.2,3,2.2,4.8L354.2,69.9L354.2,69.9z M333.3,62.9l0-48.9h-7.5l0,48.9L333.3,62.9L333.3,62.9z"/>
<polygon id="trouserT" class="st1" points="52,97.2 37.6,96.9 37.6,170.1 14.2,168 14.2,96.5 0,96.3 3.8,80.8 48.1,80.8 "/>
<path id="trouserR" class="st1" d="M117,177.6l-24.2-2.3l-11.5-37.3l-0.5,0l0,36.2L57.6,172l0-91.2l45.5,0c2,0,3.8,0.9,5.5,2.7
	c1.6,1.8,2.4,3.8,2.4,6l0,41.7c0,1.7-0.5,3.4-1.7,4.8c-1.1,1.5-2.4,2.5-3.9,3L117,177.6L117,177.6z M89.8,121.4l0-23.6l-8.9-0.2
	l0,23.4L89.8,121.4L89.8,121.4z"/>
<path id="trouserO" class="st1" d="M176.9,174c0,2.3-0.8,4.4-2.5,6.1c-1.7,1.7-3.5,2.5-5.5,2.3l-39.2-3.7c-2-0.2-3.8-1.3-5.5-3.2
	c-1.6-1.9-2.4-4-2.4-6.2l0-79.8c0-2.2,0.8-4.2,2.5-6c1.6-1.8,3.4-2.7,5.4-2.7l39.2,0c2,0,3.9,0.9,5.5,2.8c1.7,1.9,2.5,4,2.5,6.3
	L176.9,174L176.9,174z M153.5,162.9l0-64l-8.4-0.1l0,63.5L153.5,162.9L153.5,162.9z"/>
<path id="trouserU" class="st1" d="M237.6,179.2c0,2.5-0.8,4.6-2.5,6.5c-1.7,1.8-3.5,2.7-5.5,2.5l-39.2-3.7c-2-0.2-3.8-1.3-5.5-3.4
	c-1.6-2.1-2.4-4.3-2.4-6.6l0-93.6h23.3l0,86l8.4,0.6l0-86.7h23.4L237.6,179.2L237.6,179.2z"/>
<path id="trouserS" class="st1" d="M291.5,101.3l-23-0.4l0,22.2l12.2,0.4c2,0.1,3.8,1.2,5.5,3.3c1.7,2.2,2.5,4.5,2.5,7.1l0,49.5
	c0,2.6-0.8,4.8-2.5,6.8c-1.7,1.9-3.5,2.8-5.5,2.6l-33.7-3.2l-3.7-19.9l22.1,1.7l0-28.5l-12.2-0.6c-2-0.1-3.8-1.2-5.4-3.4
	c-1.6-2.1-2.5-4.4-2.4-6.9l0-41.5c0-2.5,0.8-4.7,2.4-6.7c1.6-2,3.4-3,5.4-3l34.8,0L291.5,101.3L291.5,101.3z"/>
<polygon id="trouserE" class="st1" points="334.9,176.8 331.1,197.6 297.1,194.4 297.1,80.9 331.1,80.9 335,102.1 320.5,101.8 
	320.5,125.1 334.4,125.6 334.4,146.7 320.5,146 320.5,175.7 "/>
<path id="trouserR-2" class="st1" d="M400,204.1l-24.2-2.3l-11.5-47.5l-0.5,0l0,46.4l-23.2-2.2L340.6,81h45.5c2,0,3.8,1.1,5.4,3.4
	c1.6,2.3,2.4,4.8,2.4,7.6l0,53.1c0,2.2-0.6,4.3-1.7,6.2c-1.1,1.9-2.4,3.2-3.9,3.9L400,204.1L400,204.1z M372.8,132.9l0-30.2
	l-8.9-0.1l0,30L372.8,132.9L372.8,132.9z"/>
<path id="showS" class="st0" d="M116.9,196.8l-22.6-1.7v16.4l12,0.7c2,0.1,3.8,1,5.4,2.5c1.6,1.6,2.4,3.3,2.4,5.1V255
	c0,1.8-0.8,3.5-2.5,5c-1.6,1.5-3.4,2.2-5.4,2.2l-33.1,0L69.6,247l21.7,0.4l0-21.2l-12-0.5c-2-0.1-3.8-1-5.4-2.6
	c-1.6-1.7-2.4-3.4-2.4-5.4l0-32.1c0-1.9,0.8-3.6,2.4-5c1.6-1.4,3.4-2,5.4-1.8l34.1,3.2L116.9,196.8L116.9,196.8z"/>
<polygon id="showH" class="st0" points="179,262.3 156,262.3 156,222 147.8,221.6 147.7,262.2 124.9,262.2 125,183.2 147.8,185.3 
	147.8,207.6 156,208.1 156,186.1 179,188.3 "/>
<path id="showO" class="st0" d="M241.1,256.2c0,1.6-0.8,3-2.4,4.2c-1.6,1.3-3.4,1.9-5.4,1.9l-38.5,0c-2,0-3.8-0.7-5.3-2
	c-1.6-1.4-2.4-2.9-2.4-4.5l0-60.1c0-1.7,0.8-3.1,2.4-4.3c1.6-1.2,3.4-1.7,5.3-1.5l38.5,3.6c2,0.2,3.8,1,5.4,2.4
	c1.6,1.4,2.4,2.9,2.5,4.4L241.1,256.2L241.1,256.2z M218.1,249.6l0-44.9l-8.2-0.6l0,45.4L218.1,249.6L218.1,249.6z"/>
<path id="showW" class="st0" d="M327.3,256.8c0,1.4-0.8,2.6-2.5,3.8c-1.6,1.2-3.4,1.7-5.4,1.7h-23.7c-1.6,0-3.2-0.4-4.6-1.3
	c-1.5-0.9-2.4-2-2.9-3.2c-0.5,1.2-1.4,2.3-2.9,3.2c-1.5,0.9-3,1.3-4.6,1.3h-23.8c-2,0-3.7-0.7-5.3-1.9c-1.6-1.3-2.4-2.7-2.4-4.3
	l0-61.1l23,2.2V250l4.7,0.1l0-52.5l22.8,2.2l0,50.8l4.8,0.1l0-50.4l22.9,2.2L327.3,256.8L327.3,256.8z"/>
</svg>
