<?xml version="1.0" encoding="UTF-8"?>
<svg id="uuid-99448706-79a9-4036-8e45-a866e9ff9194" data-name="rts-logo" xmlns="http://www.w3.org/2000/svg" viewBox="0 0 628.3 412.03">
  <defs>
    <style>
      .uuid-d3b85f21-bd89-49ef-a236-75fb7e9fcf73 {
        fill: #ed2024;
      }

      .uuid-761330bf-9c74-499a-99f4-9d9ffd78c495 {
        fill: #231f20;
      }
    </style>
  </defs>
  <polygon id="uuid-d3dbeb4a-a33a-4313-a38b-26445579e498" data-name="theT" class="uuid-761330bf-9c74-499a-99f4-9d9ffd78c495" points="135.81 21.76 115.74 21.75 115.69 120.35 82.85 120.32 82.9 21.74 62.99 21.73 68.39 0 130.43 .03 135.81 21.76"/>
  <polygon id="uuid-3f1f678f-7f16-4c49-aaec-6b395bfee19a" data-name="theH" class="uuid-761330bf-9c74-499a-99f4-9d9ffd78c495" points="220.89 120.39 188.03 120.37 188.07 56.72 176.29 56.74 176.25 120.38 143.69 120.35 143.75 .04 176.32 .06 176.29 34.85 188.07 34.85 188.09 .06 220.93 .06 220.89 120.39"/>
  <polygon id="uuid-a4994a64-1d39-45d2-aaf9-3b2cd319dcda" data-name="theE" class="uuid-761330bf-9c74-499a-99f4-9d9ffd78c495" points="281.83 98.68 276.46 120.42 228.76 120.39 228.82 .07 276.49 .11 281.88 21.83 261.67 21.82 261.67 45.97 281.14 45.98 281.12 67.71 261.64 67.72 261.63 98.67 281.83 98.68"/>
  <path id="uuid-ceb34649-07e7-4c00-9f89-2b9d09274792" data-name="redR" class="uuid-761330bf-9c74-499a-99f4-9d9ffd78c495" d="m410.34,120.47h-33.9s-16.12-46.62-16.12-46.62h-.71s-.01,46.6-.01,46.6h-32.56s.05-120.34.05-120.34l63.79.04c2.83,0,5.37,1.1,7.66,3.34,2.26,2.22,3.4,4.71,3.39,7.46l-.02,52.13c0,2.18-.77,4.23-2.31,6.17-1.56,1.95-3.39,3.3-5.54,4.04l16.28,47.18Zm-38.23-68.5l.03-30.1h-12.51s0,30.1,0,30.1h12.48Z"/>
  <polygon id="uuid-1c2db3a0-26ac-470e-a06f-4f9d6063122b" data-name="redE" class="uuid-761330bf-9c74-499a-99f4-9d9ffd78c495" points="471.24 98.77 465.87 120.5 418.19 120.48 418.26 .16 465.92 .17 471.29 21.92 451.11 21.9 451.08 46.07 470.56 46.05 470.54 67.8 451.05 67.8 451.05 98.76 471.24 98.77"/>
  <path id="uuid-95172e5e-6cb0-4755-b5c5-1b00a2847c03" data-name="redD" class="uuid-761330bf-9c74-499a-99f4-9d9ffd78c495" d="m556.38,109.75c-.01,2.74-1.16,5.23-3.49,7.46-2.31,2.22-4.89,3.34-7.71,3.35l-66.02-.04.06-120.33,66.01.03c2.81.02,5.37,1.13,7.69,3.34,2.32,2.22,3.49,4.71,3.47,7.47l-.02,98.72Zm-32.84-10.96l.02-76.85h-11.78s-.02,76.84-.02,76.84h11.78Z"/>
  <polygon id="uuid-0f3ed9af-a21c-442c-a8bd-8f97b6249743" data-name="trouserT" class="uuid-d3b85f21-bd89-49ef-a236-75fb7e9fcf73" points="81.61 152.67 59.13 152.27 59.09 267.26 22.26 263.82 22.31 151.63 0 151.25 6.04 126.9 75.6 126.93 81.61 152.67"/>
  <path id="uuid-875cacb5-67d9-4194-ad32-8830957153bb" data-name="trouserR" class="uuid-d3b85f21-bd89-49ef-a236-75fb7e9fcf73" d="m183.78,278.93l-37.94-3.54-18.06-58.52-.8-.06-.03,56.79-36.49-3.4.06-143.27,71.49.04c3.19,0,6.01,1.4,8.57,4.18,2.54,2.79,3.83,5.93,3.83,9.39l-.04,65.46c.03,2.73-.86,5.27-2.61,7.61-1.75,2.34-3.81,3.91-6.19,4.73l18.2,60.58Zm-42.77-88.2l.03-37.03-14.02-.26-.03,36.72,14.03.58Z"/>
  <path id="uuid-38500a04-5d0a-4c3b-89a7-59dcd2b9d352" data-name="trouserO" class="uuid-d3b85f21-bd89-49ef-a236-75fb7e9fcf73" d="m277.93,273.33c0,3.67-1.29,6.89-3.9,9.61-2.61,2.71-5.5,3.93-8.64,3.65l-61.57-5.77c-3.17-.28-6.02-1.97-8.57-5.06-2.55-3.06-3.83-6.32-3.81-9.79l.04-125.29c.02-3.48,1.29-6.62,3.86-9.44,2.55-2.82,5.4-4.25,8.54-4.25l61.58.03c3.17,0,6.05,1.49,8.64,4.46,2.61,2.98,3.9,6.3,3.91,9.97l-.06,131.9Zm-36.8-17.43l.06-100.48-13.22-.23-.07,99.68,13.23,1.02Z"/>
  <path id="uuid-ea763a83-986f-4129-a1d4-5f544f734ab4" data-name="trouserU" class="uuid-d3b85f21-bd89-49ef-a236-75fb7e9fcf73" d="m373.25,281.46c0,3.88-1.31,7.27-3.91,10.17-2.62,2.88-5.52,4.18-8.65,3.87l-61.57-5.75c-3.16-.28-6.01-2.06-8.57-5.28-2.54-3.23-3.82-6.69-3.81-10.39l.07-147.03h36.52s-.07,135.16-.07,135.16l13.19,1.02.06-136.17h36.82s-.06,154.41-.06,154.41Z"/>
  <path id="uuid-c49345cd-ab06-4c6e-a174-a59336498a85" data-name="trouserS" class="uuid-d3b85f21-bd89-49ef-a236-75fb7e9fcf73" d="m457.86,159.16l-36.15-.61-.02,34.94,19.21.68c3.17.15,6.03,1.87,8.64,5.23,2.6,3.38,3.91,7.09,3.9,11.11l-.04,77.79c0,4.04-1.3,7.57-3.9,10.63-2.6,3-5.5,4.38-8.64,4.07l-52.94-4.96-5.86-31.32,34.69,2.66.05-44.71-19.23-1.01c-3.16-.15-6.01-1.92-8.55-5.29-2.57-3.35-3.85-6.98-3.83-10.86l.05-65.12c0-3.89,1.26-7.42,3.82-10.56,2.56-3.16,5.41-4.75,8.54-4.74l54.59.03,5.69,32.05Z"/>
  <polygon id="uuid-95225532-5ea5-4416-90a8-1e14a7cc51ea" data-name="trouserE" class="uuid-d3b85f21-bd89-49ef-a236-75fb7e9fcf73" points="526.08 277.78 520.03 310.4 466.61 305.43 466.69 127.12 520.13 127.13 526.14 160.35 503.49 159.97 503.45 196.43 525.31 197.21 525.29 230.42 503.46 229.26 503.44 276.03 526.08 277.78"/>
  <path id="uuid-00a5e2dd-951d-4589-9cbd-5cdaddf83a95" data-name="trouserR" class="uuid-d3b85f21-bd89-49ef-a236-75fb7e9fcf73" d="m628.3,320.56l-37.95-3.56-18.06-74.57-.8-.03-.06,72.83-36.48-3.39.1-184.68h71.49c3.16.03,6.01,1.8,8.54,5.37,2.54,3.55,3.83,7.54,3.83,11.92l-.03,83.4c0,3.49-.9,6.74-2.61,9.75-1.74,3-3.81,5.04-6.2,6.12l18.21,76.84Zm-42.79-111.8l.02-47.4-14.01-.22-.03,47.05,14.02.56Z"/>
  <path id="uuid-85e7cb7e-4892-4639-bda5-cd66eb840279" data-name="showS" class="uuid-761330bf-9c74-499a-99f4-9d9ffd78c495" d="m183.63,309.19l-35.5-2.74v25.82s18.85,1.11,18.85,1.11c3.1.19,5.93,1.52,8.48,3.99,2.56,2.47,3.83,5.14,3.83,8.02v55.22c-.01,2.88-1.31,5.47-3.88,7.79-2.53,2.33-5.36,3.5-8.46,3.5l-51.97-.02-5.73-23.91,34.04.59.03-33.25-18.86-.77c-3.1-.13-5.9-1.5-8.41-4.09-2.47-2.6-3.74-5.41-3.75-8.42l.02-50.38c.01-3.01,1.27-5.62,3.77-7.85,2.52-2.17,5.32-3.14,8.41-2.84l53.55,5.05,5.59,23.18Z"/>
  <polygon id="uuid-563b4f95-f5af-4e13-bbe4-5fabf9b2c8ec" data-name="showH" class="uuid-761330bf-9c74-499a-99f4-9d9ffd78c495" points="281.16 411.95 245.01 411.93 245.02 348.67 232.08 348.04 232.05 411.92 196.22 411.89 196.29 287.75 232.09 291.12 232.08 326.08 245.05 326.95 245.04 292.37 281.2 295.78 281.16 411.95"/>
  <path id="uuid-fc46dc39-03f7-4f85-83a1-5f331c1e93d4" data-name="showO" class="uuid-761330bf-9c74-499a-99f4-9d9ffd78c495" d="m378.69,402.38c0,2.45-1.27,4.66-3.83,6.62-2.57,1.99-5.39,2.99-8.47,2.98l-60.45-.02c-3.1,0-5.9-1.08-8.4-3.18-2.5-2.13-3.76-4.51-3.75-7.14l.04-94.35c0-2.62,1.25-4.9,3.76-6.79,2.51-1.88,5.29-2.68,8.37-2.37l60.45,5.72c3.11.28,5.9,1.56,8.47,3.78,2.57,2.22,3.83,4.54,3.85,6.98l-.05,87.77Zm-36.14-10.35l.04-70.49-12.95-1.02-.03,71.28,12.94.23Z"/>
  <path id="uuid-37d9b406-770b-40d8-8fd0-e0e21cdb642c" data-name="showW" class="uuid-761330bf-9c74-499a-99f4-9d9ffd78c495" d="m514.16,403.37c-.03,2.15-1.31,4.12-3.86,5.93-2.55,1.84-5.38,2.74-8.46,2.73h-37.28c-2.55,0-4.98-.7-7.26-2.12-2.3-1.42-3.83-3.09-4.56-4.99-.72,1.9-2.26,3.55-4.56,4.97-2.3,1.41-4.73,2.12-7.27,2.12h-37.43c-3.09,0-5.87-1.03-8.39-3.03-2.49-2.07-3.74-4.3-3.76-6.73l.05-96.04,36.12,3.43v83.04s7.33.12,7.33.12l.05-82.47,35.8,3.4-.02,79.73,7.52.13.02-79.15,35.96,3.41v85.54Z"/>
</svg>