<?xml version="1.0" encoding="UTF-8"?>
<svg id="rts-logo" class="amimate-in" xmlns="http://www.w3.org/2000/svg" viewBox="0 0 400 262.31" preserveAspectRatio="xMidYMid meet">
  <title>The Red Trouser Show logo</title>
  <desc>A logo with the words "The Red" on top, "Trouser" in the middle and "Show" on the bottom.
  </desc>
  <polygon id="theT" class="cls-2 letter" points="86.46 13.85 73.68 13.85 73.65 76.62 52.75 76.6 52.78 13.84 40.1 13.83 43.54 0 83.04 .02 86.46 13.85"/>
  <polygon id="theH" class="cls-2 letter" points="140.63 76.64 119.71 76.63 119.73 36.11 112.23 36.12 112.21 76.64 91.48 76.62 91.52 .03 112.25 .04 112.23 22.19 119.73 22.19 119.75 .04 140.65 .04 140.63 76.64"/>
  <polygon id="theE" class="cls-2 letter" points="179.42 62.82 176.01 76.66 145.64 76.64 145.68 .04 176.02 .07 179.46 13.9 166.59 13.89 166.59 29.27 178.98 29.27 178.97 43.11 166.57 43.11 166.56 62.82 179.42 62.82"/>
  <path id="redR" class="cls-2 letter" d="m261.24,76.7h-21.58l-10.26-29.68h-.45v29.67h-20.74l.03-76.61,40.61.03c1.8,0,3.42.7,4.88,2.13,1.44,1.41,2.16,3,2.16,4.75v33.19c-.01,1.39-.5,2.69-1.48,3.93-.99,1.24-2.16,2.1-3.53,2.57l10.36,30.04h0Zm-24.34-43.61l.02-19.16h-7.96v19.16h7.95Z"/>
  <polygon id="redE" class="cls-2 letter" points="300.01 62.88 296.59 76.71 266.24 76.7 266.28 .1 296.62 .11 300.04 13.96 287.19 13.94 287.17 29.33 299.58 29.32 299.56 43.16 287.16 43.16 287.16 62.87 300.01 62.88"/>
  <path id="redD" class="cls-2 letter" d="m354.21,69.87c0,1.74-.74,3.33-2.22,4.75-1.47,1.41-3.11,2.13-4.91,2.13l-42.03-.03.04-76.61,42.02.02c1.79.01,3.42.72,4.9,2.13,1.48,1.41,2.22,3,2.21,4.76v62.85s0,0,0,0Zm-20.91-6.98V13.97s-7.49,0-7.49,0v48.92s7.49,0,7.49,0h0Z"/>
  <polygon id="trouserT" class="cls-1 letter" points="51.96 97.2 37.64 96.94 37.62 170.15 14.17 167.96 14.2 96.53 0 96.29 3.85 80.79 48.13 80.81 51.96 97.2"/>
  <path id="trouserR" class="cls-1 letter" d="m117,177.58l-24.15-2.25-11.5-37.26-.51-.04-.02,36.15-23.23-2.16.04-91.21,45.51.03c2.03,0,3.83.89,5.46,2.66,1.62,1.78,2.44,3.78,2.44,5.98l-.03,41.67c.02,1.74-.55,3.36-1.66,4.84s-2.43,2.49-3.94,3.01l11.59,38.57h0Zm-27.23-56.15l.02-23.57-8.93-.17-.02,23.38,8.93.37h0Z"/>
  <path id="trouserO" class="cls-1 letter" d="m176.94,174.01c0,2.34-.82,4.39-2.48,6.12-1.66,1.73-3.5,2.5-5.5,2.32l-39.2-3.67c-2.02-.18-3.83-1.25-5.46-3.22-1.62-1.95-2.44-4.02-2.43-6.23l.03-79.76c.01-2.22.82-4.21,2.46-6.01,1.62-1.8,3.44-2.71,5.44-2.71l39.2.02c2.02,0,3.85.95,5.5,2.84,1.66,1.9,2.48,4.01,2.49,6.35l-.04,83.97h-.01Zm-23.43-11.11l.04-63.97-8.42-.15-.04,63.46,8.42.65h0Z"/>
  <path id="trouserU" class="cls-1 letter" d="m237.63,179.19c0,2.47-.83,4.63-2.49,6.47-1.67,1.83-3.51,2.66-5.51,2.46l-39.2-3.66c-2.01-.18-3.83-1.31-5.46-3.36-1.62-2.06-2.43-4.26-2.43-6.61l.04-93.6h23.25l-.04,86.05,8.4.65.04-86.69h23.44l-.04,98.3h-.01Z"/>
  <path id="trouserS" class="cls-1 letter" d="m291.49,101.33l-23.01-.39v22.24s12.22.43,12.22.43c2.02.1,3.84,1.19,5.5,3.33,1.66,2.15,2.49,4.51,2.48,7.07l-.03,49.52c0,2.57-.83,4.82-2.48,6.77-1.66,1.91-3.5,2.79-5.5,2.59l-33.7-3.16-3.73-19.94,22.08,1.69.03-28.46-12.24-.64c-2.01-.1-3.83-1.22-5.44-3.37-1.64-2.13-2.45-4.44-2.44-6.91l.03-41.46c0-2.48.8-4.72,2.43-6.72,1.63-2.01,3.44-3.02,5.44-3.02l34.75.02,3.62,20.4h-.01Z"/>
  <polygon id="trouserE" class="cls-1 letter" points="334.92 176.85 331.07 197.61 297.06 194.45 297.11 80.93 331.13 80.94 334.96 102.08 320.54 101.84 320.52 125.05 334.43 125.55 334.42 146.69 320.52 145.96 320.51 175.73 334.92 176.85"/>
  <path id="trouserR-2" class="cls-1 letter" d="m400,204.08l-24.16-2.27-11.5-47.47-.51-.02-.04,46.37-23.22-2.16.06-117.57h45.51c2.01.02,3.83,1.15,5.44,3.42,1.62,2.26,2.44,4.8,2.44,7.59l-.02,53.1c0,2.22-.57,4.29-1.66,6.21-1.11,1.91-2.43,3.21-3.95,3.9l11.59,48.92h.01Zm-27.24-71.18v-30.18s-8.91-.14-8.91-.14l-.02,29.95,8.93.36h0Z"/>
  <path id="showS" class="cls-2 letter" d="m116.91,196.84l-22.6-1.74v16.44l12,.71c1.97.12,3.78.97,5.4,2.54,1.63,1.57,2.44,3.27,2.44,5.11v35.16c0,1.83-.83,3.48-2.47,4.96-1.61,1.48-3.41,2.23-5.39,2.23h-33.09s-3.65-15.23-3.65-15.23l21.67.38.02-21.17-12.01-.49c-1.97-.08-3.76-.95-5.35-2.6-1.57-1.66-2.38-3.44-2.39-5.36v-32.07c.02-1.92.82-3.58,2.41-5,1.6-1.38,3.39-2,5.35-1.81l34.09,3.22,3.56,14.76h0Z"/>
  <polygon id="showH" class="cls-2 letter" points="179 262.26 155.98 262.25 155.99 221.98 147.75 221.58 147.73 262.24 124.92 262.23 124.97 183.19 147.76 185.34 147.75 207.6 156.01 208.15 156 186.13 179.02 188.3 179 262.26"/>
  <path id="showO" class="cls-2 letter" d="m241.09,256.17c0,1.56-.81,2.97-2.44,4.21-1.64,1.27-3.43,1.9-5.39,1.9h-38.48c-1.97-.01-3.76-.7-5.35-2.04-1.59-1.36-2.39-2.87-2.39-4.55l.03-60.07c0-1.67.8-3.12,2.39-4.32,1.6-1.2,3.37-1.71,5.33-1.51l38.48,3.64c1.98.18,3.76.99,5.39,2.41s2.44,2.89,2.45,4.44l-.03,55.88h0Zm-23.01-6.59l.03-44.88-8.24-.65-.02,45.38,8.24.15h0Z"/>
  <path id="showW" class="cls-2 letter" d="m327.33,256.8c-.02,1.37-.83,2.62-2.46,3.78-1.62,1.17-3.43,1.74-5.39,1.74h-23.73c-1.62,0-3.17-.45-4.62-1.35-1.46-.9-2.44-1.97-2.9-3.18-.46,1.21-1.44,2.26-2.9,3.16-1.46.9-3.01,1.35-4.63,1.35h-23.83c-1.97,0-3.74-.66-5.34-1.93-1.59-1.32-2.38-2.74-2.39-4.28l.03-61.14,23,2.18v52.87l4.67.08.03-52.5,22.79,2.16v50.76s4.77.08,4.77.08v-50.39s22.91,2.17,22.91,2.17v54.46h0Z"/>
</svg>